<svg width="25" height="25" viewBox="0 0 25 25" fill="none" xmlns="http://www.w3.org/2000/svg">
<path d="M19.7917 5.20831H18.75V3.12498C18.75 2.84871 18.6403 2.58376 18.4449 2.38841C18.2496 2.19306 17.9846 2.08331 17.7083 2.08331C17.4321 2.08331 17.1671 2.19306 16.9718 2.38841C16.7764 2.58376 16.6667 2.84871 16.6667 3.12498V5.20831H8.33334V3.12498C8.33334 2.84871 8.2236 2.58376 8.02825 2.38841C7.8329 2.19306 7.56794 2.08331 7.29168 2.08331C7.01541 2.08331 6.75046 2.19306 6.55511 2.38841C6.35976 2.58376 6.25001 2.84871 6.25001 3.12498V5.20831H5.20834C4.37954 5.20831 3.58469 5.53755 2.99863 6.1236C2.41258 6.70966 2.08334 7.50451 2.08334 8.33331V9.37498H22.9167V8.33331C22.9167 7.50451 22.5874 6.70966 22.0014 6.1236C21.4153 5.53755 20.6205 5.20831 19.7917 5.20831Z" fill="#D9D9D9"/>
<path d="M2.08334 19.7916C2.08334 20.6204 2.41258 21.4153 2.99863 22.0014C3.58469 22.5874 4.37954 22.9166 5.20834 22.9166H19.7917C20.6205 22.9166 21.4153 22.5874 22.0014 22.0014C22.5874 21.4153 22.9167 20.6204 22.9167 19.7916V11.4583H2.08334V19.7916Z" fill="#D9D9D9"/>
</svg>
