<svg width="22" height="22" viewBox="0 0 22 22" fill="none" xmlns="http://www.w3.org/2000/svg">
<g clip-path="url(#clip0_0_424)">
<path d="M10.8448 21.6897C16.8343 21.6897 21.6897 16.8343 21.6897 10.8448C21.6897 4.85539 16.8343 0 10.8448 0C4.85539 0 0 4.85539 0 10.8448C0 16.8343 4.85539 21.6897 10.8448 21.6897Z" fill="#2196F3"/>
<path fill-rule="evenodd" clip-rule="evenodd" d="M17.4705 14.8244L17.459 14.8536C17.3498 15.1322 17.2401 15.4106 17.1252 15.6872C17.0264 15.9248 16.9242 16.1634 16.8113 16.3946C16.7438 16.5327 16.637 16.7508 16.5285 16.8593C16.4181 16.9699 16.2961 17.0683 16.1647 17.1528C15.4081 17.637 14.4623 17.5688 13.6309 17.3458C10.0595 16.3891 5.29929 11.6289 4.34245 8.05752C4.11962 7.22582 4.0515 6.27978 4.53621 5.52318C4.6204 5.39182 4.71861 5.26999 4.82911 5.15984C4.93743 5.05139 5.15581 4.94455 5.29378 4.87706C5.5253 4.76417 5.76401 4.66199 6.00166 4.56324C6.27808 4.44886 6.55661 4.33872 6.83506 4.22943L6.86408 4.21824C7.00999 4.16046 7.17183 4.15715 7.31997 4.20892C7.46812 4.26069 7.59267 4.36408 7.67084 4.50016L9.05156 6.89221C9.13788 7.04283 9.16111 7.22148 9.11619 7.38916C9.07127 7.55685 8.96184 7.69995 8.81179 7.78725C8.32339 8.06943 7.93374 8.50839 7.81864 9.0713C7.76074 9.3394 7.76189 9.61689 7.82202 9.8845C7.88216 10.1521 7.99983 10.4034 8.16686 10.621C8.58395 11.1654 9.03862 11.6801 9.52755 12.1611C10.0087 12.6501 10.5234 13.1048 11.068 13.522C11.2855 13.6891 11.5368 13.8068 11.8045 13.8669C12.0721 13.9271 12.3497 13.9282 12.6178 13.8702C13.1802 13.7553 13.6196 13.3653 13.9016 12.8769C13.9888 12.7269 14.1319 12.6174 14.2996 12.5725C14.4672 12.5276 14.6458 12.5508 14.7964 12.6372L17.1882 14.0182C17.3243 14.0963 17.4277 14.2207 17.4795 14.3687C17.5314 14.5168 17.5282 14.6785 17.4705 14.8244Z" fill="white"/>
</g>
<defs>
<clipPath id="clip0_0_424">
<rect width="21.6897" height="21.6897" fill="white"/>
</clipPath>
</defs>
</svg>
