<svg width="26" height="26" viewBox="0 0 26 26" fill="none" xmlns="http://www.w3.org/2000/svg">
<circle cx="13" cy="13" r="13" fill="#0373F3"/>
<path fill-rule="evenodd" clip-rule="evenodd" d="M8.04169 12.0187C8.04169 9.33543 10.284 7.16666 12.9962 7.16666C15.7161 7.16666 17.9584 9.33543 17.9584 12.0187C17.9584 13.3708 17.4666 14.6261 16.6572 15.6901C15.7643 16.8637 14.6638 17.8863 13.425 18.6889C13.1415 18.8744 12.8856 18.8884 12.5744 18.6889C11.3286 17.8863 10.2281 16.8637 9.34281 15.6901C8.53284 14.6261 8.04169 13.3708 8.04169 12.0187ZM11.3633 12.1698C11.3633 13.0687 12.0968 13.7756 12.9962 13.7756C13.8962 13.7756 14.6367 13.0687 14.6367 12.1698C14.6367 11.2779 13.8962 10.5365 12.9962 10.5365C12.0968 10.5365 11.3633 11.2779 11.3633 12.1698Z" fill="white"/>
</svg>
