<svg width="25" height="25" viewBox="0 0 25 25" fill="none" xmlns="http://www.w3.org/2000/svg">
<path d="M7.03125 14.0625H2.34375C1.91228 14.0625 1.5625 14.4123 1.5625 14.8438V22.6562C1.5625 23.0877 1.91228 23.4375 2.34375 23.4375H7.03125C7.46272 23.4375 7.8125 23.0877 7.8125 22.6562V14.8438C7.8125 14.4123 7.46272 14.0625 7.03125 14.0625Z" fill="#D9D9D9"/>
<path d="M22.6562 7.8125H17.9688C17.5373 7.8125 17.1875 8.16228 17.1875 8.59375V22.6562C17.1875 23.0877 17.5373 23.4375 17.9688 23.4375H22.6562C23.0877 23.4375 23.4375 23.0877 23.4375 22.6562V8.59375C23.4375 8.16228 23.0877 7.8125 22.6562 7.8125Z" fill="#D9D9D9"/>
<path d="M14.8438 1.5625H10.1562C9.72478 1.5625 9.375 1.91228 9.375 2.34375V22.6562C9.375 23.0877 9.72478 23.4375 10.1562 23.4375H14.8438C15.2752 23.4375 15.625 23.0877 15.625 22.6562V2.34375C15.625 1.91228 15.2752 1.5625 14.8438 1.5625Z" fill="#D9D9D9"/>
</svg>
