<svg width="28" height="28" viewBox="0 0 28 28" fill="none" xmlns="http://www.w3.org/2000/svg">
<path fill-rule="evenodd" clip-rule="evenodd" d="M2.33319 14.0001C2.33319 7.5601 7.54819 2.33344 13.9999 2.33344C20.4399 2.33344 25.6665 7.5601 25.6665 14.0001C25.6665 20.4518 20.4399 25.6668 13.9999 25.6668C7.54819 25.6668 2.33319 20.4518 2.33319 14.0001ZM16.6015 16.1351L18.4915 10.1618C18.6199 9.75344 18.2465 9.36844 17.8382 9.49677L11.8649 11.3634C11.6199 11.4451 11.4215 11.6318 11.3515 11.8768L9.48486 17.8618C9.35652 18.2584 9.74152 18.6434 10.1382 18.5151L16.0882 16.6484C16.3332 16.5784 16.5315 16.3801 16.6015 16.1351Z" fill="#BCBCBC"/>
</svg>
