<svg width="28" height="28" viewBox="0 0 28 28" fill="none" xmlns="http://www.w3.org/2000/svg">
<path fill-rule="evenodd" clip-rule="evenodd" d="M19.1548 7.54831H19.3938C22.5344 7.54831 25.0834 10.1733 25.0834 13.3933V19.8333C25.0834 23.0533 22.5344 25.6666 19.3938 25.6666H8.60628C5.46563 25.6666 2.91669 23.0533 2.91669 19.8333V13.3933C2.91669 10.1733 5.46563 7.54831 8.60628 7.54831H8.84525C8.868 6.14831 9.40283 4.84165 10.3701 3.86165C11.3487 2.86998 12.6004 2.36831 14.0114 2.33331C16.8334 2.33331 19.1207 4.66665 19.1548 7.54831ZM11.5649 5.10998C10.9276 5.76331 10.5749 6.62665 10.5521 7.54831H17.4479C17.4138 5.63498 15.889 4.08331 14.0114 4.08331C13.1352 4.08331 12.2249 4.44498 11.5649 5.10998ZM18.3241 12.04C18.802 12.04 19.1776 11.6433 19.1776 11.165V9.81165C19.1776 9.33331 18.802 8.93665 18.3241 8.93665C17.8576 8.93665 17.4707 9.33331 17.4707 9.81165V11.165C17.4707 11.6433 17.8576 12.04 18.3241 12.04ZM10.427 11.165C10.427 11.6433 10.0514 12.04 9.57351 12.04C9.10697 12.04 8.72007 11.6433 8.72007 11.165V9.81165C8.72007 9.33331 9.10697 8.93665 9.57351 8.93665C10.0514 8.93665 10.427 9.33331 10.427 9.81165V11.165Z" fill="#BCBCBC"/>
</svg>
